<svg width="152" height="25" viewBox="0 0 152 25" fill="none" xmlns="http://www.w3.org/2000/svg">
<path d="M14.205 12.17C15.9083 12.38 17.1683 12.9283 17.985 13.815C18.825 14.6783 19.245 15.7517 19.245 17.035C19.245 18.3183 18.7667 19.5317 17.81 20.675C16.8767 21.8183 15.675 22.705 14.205 23.335C13.5517 23.5917 12.6883 23.7783 11.615 23.895C10.565 24.0117 9.48 24.07 8.36 24.07C6.49333 24.07 4.58 23.895 2.62 23.545C2.27 23.475 1.89667 23.3 1.5 23.02C1.12667 22.74 0.94 22.3317 0.94 21.795C0.916667 19.6483 0.835 16.6617 0.695 12.835L0.66 10.91C0.566667 7.92333 0.52 5.57833 0.52 3.875C0.52 3.57167 0.695 3.22167 1.045 2.825C1.41833 2.405 1.86167 2.17167 2.375 2.125C2.67833 2.125 2.97 2.11333 3.25 2.09C5.88667 1.83333 7.64833 1.705 8.535 1.705C10.285 1.705 11.825 1.88 13.155 2.23C14.5083 2.55667 15.6283 3.16333 16.515 4.05C16.8417 4.42333 17.11 4.90167 17.32 5.485C17.53 6.045 17.635 6.59333 17.635 7.13C17.6583 8.27333 17.355 9.32333 16.725 10.28C16.1183 11.2367 15.2783 11.8667 14.205 12.17ZM8.745 4.68C7.95167 4.68 7.12333 4.72667 6.26 4.82C5.42 4.91333 4.70833 5.03 4.125 5.17L4.335 11.785L5.595 11.75C7.625 11.54 9.11833 11.365 10.075 11.225C10.6817 11.085 11.2767 10.8167 11.86 10.42C12.4433 10 12.9217 9.56833 13.295 9.125C13.6917 8.65833 13.89 8.30833 13.89 8.075C13.89 7.725 13.82 7.375 13.68 7.025C13.54 6.65167 13.3883 6.38333 13.225 6.22C12.595 5.61333 11.9533 5.205 11.3 4.995C10.6467 4.785 9.795 4.68 8.745 4.68ZM4.44 20.99C5.63 21.1533 6.76167 21.235 7.835 21.235C10.1917 21.235 12.0467 20.9317 13.4 20.325C14.7767 19.695 15.465 18.505 15.465 16.755C15.465 16.055 14.94 15.4717 13.89 15.005C12.84 14.5383 11.7083 14.305 10.495 14.305C9.67833 14.305 8.64 14.3983 7.38 14.585C6.37667 14.725 5.39667 14.8183 4.44 14.865C4.48667 16.265 4.51 17.1517 4.51 17.525C4.51 18.2483 4.49833 18.7967 4.475 19.17L4.44 20.99ZM36.342 12.765C36.5286 13.0917 36.6803 13.57 36.797 14.2C36.9136 14.8067 36.972 15.355 36.972 15.845C36.972 16.755 36.7736 18.05 36.377 19.73C34.767 22.67 32.387 24.14 29.237 24.14C28.0703 24.14 26.8803 23.755 25.667 22.985C24.4536 22.215 23.6136 21.3283 23.147 20.325C22.517 18.3183 22.202 17.0467 22.202 16.51C22.202 15.5767 22.4003 14.585 22.797 13.535C23.217 12.485 23.742 11.575 24.372 10.805C24.7686 10.2683 25.4803 9.81333 26.507 9.44C27.5336 9.04333 28.467 8.845 29.307 8.845C30.9403 8.845 32.3286 9.16 33.472 9.79C34.6153 10.3967 35.572 11.3883 36.342 12.765ZM33.297 18.4C33.4136 18.0967 33.472 17.315 33.472 16.055C33.472 15.3783 33.3436 14.7133 33.087 14.06C32.8536 13.4067 32.5036 12.8467 32.037 12.38C31.9903 12.3333 31.862 12.2633 31.652 12.17C31.442 12.0533 31.1503 11.9483 30.777 11.855C30.427 11.7383 30.0186 11.68 29.552 11.68C28.2453 11.68 27.2886 12.205 26.682 13.255C26.0753 14.305 25.772 15.495 25.772 16.825C25.772 17.0583 25.8303 17.5017 25.947 18.155C26.087 18.8083 26.2036 19.2167 26.297 19.38C26.367 19.5433 26.542 19.7767 26.822 20.08C27.1253 20.36 27.487 20.6167 27.907 20.85C28.3503 21.06 28.8053 21.165 29.272 21.165C30.322 21.165 31.162 20.92 31.792 20.43C32.422 19.9167 32.9236 19.24 33.297 18.4ZM54.1821 12.765C54.3688 13.0917 54.5204 13.57 54.6371 14.2C54.7538 14.8067 54.8121 15.355 54.8121 15.845C54.8121 16.475 54.7421 17.175 54.6021 17.945C54.4621 18.715 54.3338 19.31 54.2171 19.73C52.6071 22.67 50.2271 24.14 47.0771 24.14C45.9104 24.14 44.7204 23.755 43.5071 22.985C42.2938 22.215 41.4538 21.3283 40.9871 20.325C40.3571 18.3417 40.0421 17.07 40.0421 16.51C40.0421 15.5767 40.2404 14.585 40.6371 13.535C41.0571 12.485 41.5821 11.575 42.2121 10.805C42.6321 10.2683 43.3554 9.81333 44.3821 9.44C45.4088 9.04333 46.3421 8.845 47.1821 8.845C48.8154 8.845 50.1921 9.16 51.3121 9.79C52.4554 10.3967 53.4121 11.3883 54.1821 12.765ZM51.1371 18.4C51.2538 18.1667 51.3121 17.385 51.3121 16.055C51.3121 15.3783 51.1838 14.7133 50.9271 14.06C50.6938 13.4067 50.3438 12.8467 49.8771 12.38C49.8304 12.3333 49.7021 12.2633 49.4921 12.17C49.2821 12.0533 48.9904 11.9483 48.6171 11.855C48.2671 11.7383 47.8588 11.68 47.3921 11.68C46.0854 11.68 45.1288 12.205 44.5221 13.255C43.9154 14.305 43.6121 15.495 43.6121 16.825C43.6121 17.035 43.6821 17.4667 43.8221 18.12C43.9621 18.7733 44.0671 19.1933 44.1371 19.38C44.3238 19.7067 44.6971 20.0917 45.2571 20.535C45.8404 20.955 46.4704 21.165 47.1471 21.165C48.1971 21.165 49.0254 20.92 49.6321 20.43C50.2621 19.9167 50.7638 19.24 51.1371 18.4ZM60.8605 24.14C60.3939 24.14 59.9972 24.0583 59.6705 23.895C59.3439 23.7317 59.1455 23.5567 59.0755 23.37C58.8189 22.4367 58.6905 21.2117 58.6905 19.695C58.6905 16.895 58.7372 14.62 58.8305 12.87C58.9239 10.7933 58.9705 8.79833 58.9705 6.885C58.9705 6.325 58.9005 5.50833 58.7605 4.435C58.7372 4.24833 58.7022 3.91 58.6555 3.42C58.6089 2.93 58.5855 2.475 58.5855 2.055C58.5855 1.54167 58.7605 1.13333 59.1105 0.829998C59.4839 0.526666 59.9622 0.375 60.5455 0.375C61.0122 0.375 61.3855 0.526666 61.6655 0.829998C61.9689 1.11 62.1205 1.495 62.1205 1.985C62.1205 2.73167 62.1439 3.78167 62.1905 5.135C62.2372 6.395 62.2605 7.34 62.2605 7.97C62.2605 8.67 62.2372 9.60333 62.1905 10.77C62.1439 11.47 62.1205 11.9833 62.1205 12.31C62.1205 13.3367 62.1322 14.1883 62.1555 14.865C63.0189 14.0017 64.1505 12.9867 65.5505 11.82C66.9505 10.6533 68.0355 9.83667 68.8055 9.37C69.6222 8.88 70.1589 8.635 70.4155 8.635C70.9055 8.635 71.3255 8.74 71.6755 8.95C72.0255 9.16 72.2005 9.46333 72.2005 9.86C72.2005 10.2567 72.1422 10.5717 72.0255 10.805C71.9089 11.0383 71.6989 11.2717 71.3955 11.505L66.8805 14.795C67.3939 15.0517 67.8255 15.3783 68.1755 15.775C68.5489 16.1717 68.9222 16.6617 69.2955 17.245C70.0889 18.5517 70.7189 19.5083 71.1855 20.115C71.6755 20.7217 72.1189 21.025 72.5155 21.025L73.3905 20.99C73.5539 20.99 73.6939 21.0833 73.8105 21.27C73.9505 21.4567 74.0205 21.725 74.0205 22.075C74.0205 22.6117 73.7522 23.0433 73.2155 23.37C72.7022 23.6967 72.1189 23.86 71.4655 23.86C70.5555 23.86 69.7505 23.51 69.0505 22.81C68.3505 22.0867 67.6855 21.1183 67.0555 19.905C66.1455 18.1783 65.2472 17.1517 64.3605 16.825L62.1205 18.645L62.2605 22.46C62.2605 23.0667 62.0972 23.4983 61.7705 23.755C61.4672 24.0117 61.1639 24.14 60.8605 24.14Z" fill="#3B82F6"/>
<path d="M92.6266 17.98C92.6266 19.0767 92.3933 19.9633 91.9266 20.64C91.4599 21.3167 90.6549 21.9817 89.5116 22.635C88.7416 23.1017 87.8549 23.4633 86.8516 23.72C85.8483 23.9533 84.8333 24.07 83.8066 24.07C83.1766 24.07 82.4416 23.9533 81.6016 23.72C80.7849 23.4633 80.1199 23.2183 79.6066 22.985L79.0116 22.46C77.9616 21.5967 77.2266 20.9083 76.8066 20.395C76.4099 19.8583 76.2116 19.205 76.2116 18.435C76.2116 17.8283 76.3516 17.3733 76.6316 17.07C76.9116 16.7667 77.3666 16.615 77.9966 16.615C78.3233 16.615 78.6266 16.72 78.9066 16.93C79.1866 17.14 79.4316 17.4317 79.6416 17.805C80.2249 18.8317 80.9133 19.59 81.7066 20.08C82.5233 20.5467 83.4799 20.78 84.5766 20.78C85.6033 20.78 86.6416 20.465 87.6916 19.835C88.5549 19.2983 88.9866 18.7733 88.9866 18.26C88.9866 17.35 88.5783 16.5917 87.7616 15.985C86.9683 15.3783 85.8249 14.83 84.3316 14.34C83.4216 14.0133 82.0566 13.4067 80.2366 12.52C78.9999 11.9133 78.0783 11.1667 77.4716 10.28C76.8649 9.39333 76.5616 8.46 76.5616 7.48C76.5616 6.59333 76.8649 5.73 77.4716 4.89C78.1016 4.02667 78.8599 3.385 79.7466 2.965C80.2133 2.73167 80.9599 2.48667 81.9866 2.23C83.0133 1.95 83.7833 1.81 84.2966 1.81C85.2533 1.81 86.0816 1.92667 86.7816 2.16C87.4816 2.37 88.1699 2.67333 88.8466 3.07C89.8733 3.65333 90.6316 4.17833 91.1216 4.645C91.6116 5.11167 91.8566 5.695 91.8566 6.395C91.8566 6.815 91.6933 7.18833 91.3666 7.515C91.0633 7.84167 90.5266 8.005 89.7566 8.005C89.5699 8.005 89.3833 7.92333 89.1966 7.76C89.0099 7.59667 88.7766 7.35167 88.4966 7.025C88.1233 6.535 87.7616 6.20833 87.4116 6.045C87.3183 6.02167 86.9333 5.87 86.2566 5.59C85.6033 5.31 84.7866 5.17 83.8066 5.17C82.8733 5.17 82.0449 5.39166 81.3216 5.835C80.5983 6.255 80.2366 6.87333 80.2366 7.69C80.2366 8.50667 80.9716 9.17167 82.4416 9.685C84.0049 10.2917 85.2999 10.8167 86.3266 11.26C87.3766 11.7033 88.3916 12.2283 89.3716 12.835C90.4916 13.5117 91.3083 14.2233 91.8216 14.97C92.3583 15.7167 92.6266 16.72 92.6266 17.98ZM110.18 24.105C108.43 24.105 107.252 23.4283 106.645 22.075C106.342 21.3983 106.143 20.5233 106.05 19.45C105.957 18.3533 105.91 17.07 105.91 15.6V14.515C105.91 12.835 105.35 11.995 104.23 11.995C103.577 11.995 102.923 12.3333 102.27 13.01C101.617 13.6633 101.068 14.5383 100.625 15.635C100.205 16.7083 99.9949 17.8283 99.9949 18.995C99.9949 19.765 100.03 20.465 100.1 21.095C100.147 21.8883 100.17 22.495 100.17 22.915C100.17 23.7083 99.6216 24.105 98.5249 24.105C97.9883 24.105 97.5099 23.9883 97.0899 23.755C96.6933 23.5217 96.4949 23.2183 96.4949 22.845C96.5883 21.655 96.6349 20.185 96.6349 18.435L96.5999 13.815C96.5999 13.0683 96.5416 10.3033 96.4249 5.52L96.3199 2.3C96.3199 1.78667 96.5533 1.34333 97.0199 0.969998C97.4866 0.573332 98.0116 0.375 98.5949 0.375C99.1083 0.375 99.4816 0.491666 99.7149 0.724999C99.9483 0.958332 100.065 1.32 100.065 1.81C100.065 2.41667 100.053 3.12833 100.03 3.945C100.007 4.73833 99.9833 5.345 99.9599 5.765C99.8899 6.955 99.8549 8.145 99.8549 9.335C99.8549 10.5017 99.8316 11.4233 99.7849 12.1C100.485 11.0733 101.278 10.315 102.165 9.825C103.075 9.31167 104.137 9.055 105.35 9.055C106.237 9.055 107.053 9.45167 107.8 10.245C108.57 11.015 109.037 11.9017 109.2 12.905C109.247 13.4183 109.27 14.1767 109.27 15.18L109.235 17.735C109.235 18.1317 109.258 18.75 109.305 19.59C109.328 19.9867 109.457 20.4067 109.69 20.85C109.947 21.2933 110.238 21.62 110.565 21.83C110.868 22.0167 111.067 22.2033 111.16 22.39C111.253 22.5767 111.3 22.7867 111.3 23.02C111.3 23.2533 111.195 23.4983 110.985 23.755C110.775 23.9883 110.507 24.105 110.18 24.105ZM113.496 16.09C113.496 15.25 113.648 14.4683 113.951 13.745C114.254 12.9983 114.698 12.2283 115.281 11.435C115.864 10.6417 116.669 10.0233 117.696 9.58C118.723 9.11333 119.843 8.88 121.056 8.88C121.989 8.88 122.888 9.07833 123.751 9.475C124.638 9.84833 125.431 10.315 126.131 10.875C126.224 11.0383 126.388 11.3417 126.621 11.785C126.854 12.205 127.018 12.59 127.111 12.94C127.228 13.29 127.286 13.6517 127.286 14.025C127.286 15.5883 126.714 16.6383 125.571 17.175C124.428 17.6883 122.981 17.945 121.231 17.945C119.481 17.945 118.058 17.8283 116.961 17.595C117.008 18.0383 117.124 18.4817 117.311 18.925C117.498 19.3683 117.719 19.7067 117.976 19.94C118.443 20.3833 118.898 20.675 119.341 20.815C119.808 20.9317 120.426 20.99 121.196 20.99C122.363 20.99 123.273 20.7683 123.926 20.325C124.533 19.9283 124.999 19.73 125.326 19.73C125.769 19.73 126.108 19.87 126.341 20.15C126.574 20.4067 126.691 20.745 126.691 21.165C126.691 22.0517 126.119 22.775 124.976 23.335C123.856 23.895 122.584 24.175 121.161 24.175C120.041 24.175 118.933 23.9767 117.836 23.58C116.739 23.1833 115.864 22.6233 115.211 21.9C114.768 21.1533 114.371 20.2433 114.021 19.17C113.671 18.0967 113.496 17.07 113.496 16.09ZM121.196 11.75C120.683 11.75 120.146 11.8433 119.586 12.03C119.049 12.1933 118.629 12.45 118.326 12.8C117.953 13.1967 117.673 13.5583 117.486 13.885C117.323 14.2117 117.218 14.62 117.171 15.11C117.428 15.11 117.673 15.1217 117.906 15.145C118.139 15.1683 118.361 15.1917 118.571 15.215C119.598 15.3083 120.368 15.355 120.881 15.355C121.908 15.355 122.689 15.2033 123.226 14.9C123.786 14.5967 124.066 14.1883 124.066 13.675C124.066 13.185 123.751 12.7417 123.121 12.345C122.514 11.9483 121.873 11.75 121.196 11.75ZM134.581 18.575C134.581 19.4617 134.709 20.15 134.966 20.64C135.246 21.1067 135.596 21.34 136.016 21.34C136.249 21.34 136.471 21.3283 136.681 21.305C136.891 21.2583 137.101 21.235 137.311 21.235C137.544 21.235 137.742 21.3517 137.906 21.585C138.092 21.8183 138.186 22.075 138.186 22.355C138.186 22.915 137.917 23.3583 137.381 23.685C136.867 23.9883 136.167 24.14 135.281 24.14C134.651 24.14 134.009 23.9533 133.356 23.58C132.726 23.1833 132.201 22.5767 131.781 21.76C131.361 20.92 131.151 19.8817 131.151 18.645C131.151 15.985 131.197 13.7333 131.291 11.89C131.407 9.69667 131.466 6.93167 131.466 3.595C131.466 2.545 131.524 1.81 131.641 1.39C131.781 1.06333 132.002 0.818332 132.306 0.654998C132.632 0.468332 132.971 0.375 133.321 0.375C133.671 0.375 133.974 0.433333 134.231 0.549999C134.511 0.666666 134.697 0.853332 134.791 1.11C134.884 1.39 134.942 1.67 134.966 1.95C135.012 2.20667 135.036 2.58 135.036 3.07C135.036 4.02667 135.001 4.94833 134.931 5.835C134.884 6.90833 134.861 7.69 134.861 8.18C134.674 12.2867 134.581 15.7517 134.581 18.575ZM150.828 5.765C150.501 5.765 150.186 5.68333 149.883 5.52C149.579 5.35667 149.369 5.11167 149.253 4.785C149.019 4.155 148.763 3.71167 148.483 3.455C148.226 3.175 147.911 3.035 147.538 3.035C147.304 3.035 147.083 3.21 146.873 3.56C146.686 3.91 146.546 4.45833 146.453 5.205C146.289 6.745 146.208 7.92333 146.208 8.74C146.558 8.81 147.048 8.845 147.678 8.845C148.004 8.845 148.424 8.82167 148.938 8.775L149.883 8.74C150.303 8.74 150.629 8.82167 150.863 8.985C151.096 9.14833 151.213 9.41667 151.213 9.79C151.213 10.3267 151.049 10.77 150.723 11.12C150.396 11.47 150.011 11.645 149.568 11.645C147.888 11.645 146.756 11.7267 146.173 11.89C146.173 13.29 146.243 15.2967 146.383 17.91C146.383 18.3067 146.406 18.8783 146.453 19.625L146.593 22.32C146.639 22.9967 146.569 23.475 146.383 23.755C146.219 24.0117 145.858 24.14 145.298 24.14C144.271 24.14 143.606 23.5217 143.303 22.285C143.116 21.3983 142.964 20.1383 142.848 18.505C142.754 16.8483 142.708 15.39 142.708 14.13C142.708 13.4767 142.743 12.7183 142.813 11.855C142.766 11.8317 142.638 11.82 142.428 11.82C142.218 11.82 142.066 11.8317 141.973 11.855C141.273 11.9017 140.759 11.925 140.433 11.925C140.223 11.925 140.013 11.7733 139.803 11.47C139.593 11.1667 139.488 10.8167 139.488 10.42C139.488 10.1867 139.569 9.97667 139.733 9.79C139.896 9.58 140.094 9.42833 140.328 9.335C140.678 9.14833 141.179 9.055 141.833 9.055H142.883C142.883 5.78833 143.244 3.51333 143.968 2.23C144.668 1.01667 145.823 0.409999 147.433 0.409999C148.179 0.409999 148.891 0.561666 149.568 0.865C150.268 1.16833 150.828 1.58833 151.248 2.125C151.691 2.66167 151.913 3.26833 151.913 3.945C151.913 4.66833 151.819 5.15833 151.633 5.415C151.446 5.64833 151.178 5.765 150.828 5.765Z" fill="#EC4899"/>
</svg>
